<svg id="TuMeke_logo" data-name="TuMeke logo" xmlns="http://www.w3.org/2000/svg" xmlns:xlink="http://www.w3.org/1999/xlink" viewBox="0 0 616 161.44"><defs><style>.cls-1{fill:#6c7b8a;}.cls-2{fill:url(#linear-gradient);}</style><linearGradient id="linear-gradient" x1="234" y1="500" x2="400" y2="500" gradientUnits="userSpaceOnUse"><stop offset="0" stop-color="#645aff"/><stop offset="0.48" stop-color="#645aff"/><stop offset="1" stop-color="#645aff"/></linearGradient></defs><path d="M469.46,456h-25V441.5H510.6V456H485.46v63.78h-16Z" transform="translate(-234 -423.9)"/><path d="M513.44,461.06h16V495.2c0,6.76,4.63,11.27,11.15,11.27,6.16,0,10.9-4.51,10.9-11.27V461.06h16V493.9c0,16.36-11.62,27.27-26.91,27.27-15.65,0-27.15-10.91-27.15-27.27Z" transform="translate(-234 -423.9)"/><path d="M657,440.07v79.67H641V478l-19.68,24.66H616.1L596.42,478v41.73h-16V440.07h5.21l33.08,42.33,33.08-42.33Z" transform="translate(-234 -423.9)"/><path d="M683.32,495.8c1.89,7.47,7.94,11.61,16.48,11.61a26.47,26.47,0,0,0,16.36-5.92l6.64,10.9a35.9,35.9,0,0,1-23.48,8.78c-18.14.35-32.48-13.76-32.13-30.71a30.29,30.29,0,0,1,30.71-30.71c16.24,0,27.62,12,27.62,27.27a37.87,37.87,0,0,1-1.06,8.78ZM710,484.53c-.12-7.23-5.69-11.85-12.68-11.85-6.76,0-12.21,4.62-14,11.85Z" transform="translate(-234 -423.9)"/><path d="M774.36,519.74l-23.59-32.48v32.48h-16V430.83h16v55.24l21.1-25h19l-22.05,26,23.83,32.72Z" transform="translate(-234 -423.9)"/><path d="M807.79,495.8c1.9,7.47,8,11.61,16.48,11.61a26.47,26.47,0,0,0,16.36-5.92l6.64,10.9a35.87,35.87,0,0,1-23.47,8.78c-18.14.35-32.49-13.76-32.13-30.71a30.27,30.27,0,0,1,30.7-30.71c16.25,0,27.63,12,27.63,27.27a37.9,37.9,0,0,1-1.07,8.78Zm26.68-11.27c-.12-7.23-5.69-11.85-12.69-11.85-6.75,0-12.21,4.62-14,11.85Z" transform="translate(-234 -423.9)"/><path class="cls-1" d="M490.23,554.89H475V569H492v4.23H470V534.12H491.1v4.24H475v12.35h15.19Z" transform="translate(-234 -423.9)"/><path class="cls-1" d="M501.83,553.9c0-3.31-.06-6.15-.23-8.76h4.47l.17,5.51h.23c1.28-3.77,4.35-6.15,7.77-6.15a5.33,5.33,0,0,1,1.45.18v4.81a8,8,0,0,0-1.74-.17c-3.59,0-6.14,2.72-6.84,6.55a14,14,0,0,0-.23,2.38v15h-5.05Z" transform="translate(-234 -423.9)"/><path class="cls-1" d="M548,545.14c-.12,2-.23,4.29-.23,7.72v16.29c0,6.44-1.28,10.39-4,12.82s-6.67,3.36-10.21,3.36c-3.37,0-7.08-.81-9.34-2.32l1.28-3.88a15.79,15.79,0,0,0,8.23,2.2c5.22,0,9-2.72,9-9.8V568.4h-.12a10,10,0,0,1-8.93,4.7c-7,0-11.94-5.92-11.94-13.69,0-9.51,6.2-14.91,12.64-14.91,4.87,0,7.54,2.56,8.76,4.88h.11l.23-4.24Zm-5.28,11.08a7.46,7.46,0,0,0-7.42-7.71c-4.87,0-8.35,4.11-8.35,10.61,0,5.51,2.78,10.09,8.29,10.09a7.47,7.47,0,0,0,7.08-5.22,8.88,8.88,0,0,0,.4-2.72Z" transform="translate(-234 -423.9)"/><path class="cls-1" d="M585.12,559c0,10.38-7.19,14.9-14,14.9-7.6,0-13.45-5.57-13.45-14.44,0-9.4,6.14-14.91,13.92-14.91C579.67,544.5,585.12,550.36,585.12,559Zm-22.27.29c0,6.14,3.54,10.78,8.52,10.78s8.53-4.58,8.53-10.9c0-4.76-2.38-10.79-8.41-10.79S562.85,553.9,562.85,559.24Z" transform="translate(-234 -423.9)"/><path class="cls-1" d="M595,552.74c0-2.9-.06-5.28-.23-7.6h4.52l.29,4.64h.12A10.32,10.32,0,0,1,609,544.5c3.88,0,9.91,2.32,9.91,12v16.76h-5.1V557c0-4.52-1.68-8.29-6.5-8.29a7.25,7.25,0,0,0-6.84,5.22,7.35,7.35,0,0,0-.35,2.37v16.88H595Z" transform="translate(-234 -423.9)"/><path class="cls-1" d="M656.11,559c0,10.38-7.19,14.9-14,14.9-7.59,0-13.45-5.57-13.45-14.44,0-9.4,6.15-14.91,13.92-14.91C650.66,544.5,656.11,550.36,656.11,559Zm-22.27.29c0,6.14,3.54,10.78,8.53,10.78s8.52-4.58,8.52-10.9c0-4.76-2.38-10.79-8.41-10.79S633.84,553.9,633.84,559.24Z" transform="translate(-234 -423.9)"/><path class="cls-1" d="M666,552.74c0-2.9-.06-5.28-.23-7.6h4.46l.24,4.53h.17a9.69,9.69,0,0,1,8.82-5.17,8.3,8.3,0,0,1,7.94,5.63h.12a11.5,11.5,0,0,1,3.13-3.65,9.56,9.56,0,0,1,6.2-2c3.72,0,9.23,2.44,9.23,12.18v16.53h-5V557.32c0-5.39-2-8.64-6.09-8.64a6.61,6.61,0,0,0-6,4.64,8.46,8.46,0,0,0-.41,2.55v17.34h-5V556.39c0-4.46-2-7.71-5.85-7.71-3.19,0-5.51,2.55-6.33,5.1a7.09,7.09,0,0,0-.4,2.5v16.93h-5Z" transform="translate(-234 -423.9)"/><path class="cls-1" d="M723.57,537.25a3.17,3.17,0,0,1-6.33,0,3.12,3.12,0,0,1,3.19-3.19A3,3,0,0,1,723.57,537.25Zm-5.69,36V545.14H723v28.07Z" transform="translate(-234 -423.9)"/><path class="cls-1" d="M754.94,572.17a18.73,18.73,0,0,1-8.06,1.62c-8.47,0-14-5.74-14-14.32s5.92-14.91,15.08-14.91a17.16,17.16,0,0,1,7.08,1.45l-1.16,4a11.79,11.79,0,0,0-5.92-1.34c-6.44,0-9.91,4.76-9.91,10.62,0,6.49,4.17,10.49,9.74,10.49a14.45,14.45,0,0,0,6.26-1.39Z" transform="translate(-234 -423.9)"/><path class="cls-1" d="M763.7,568a13.36,13.36,0,0,0,6.73,2c3.71,0,5.45-1.85,5.45-4.17s-1.45-3.77-5.22-5.16c-5-1.8-7.42-4.59-7.42-8,0-4.52,3.65-8.24,9.68-8.24a14.08,14.08,0,0,1,6.9,1.74L778.55,550a10.87,10.87,0,0,0-5.74-1.63c-3,0-4.7,1.74-4.7,3.83,0,2.32,1.68,3.36,5.33,4.76,4.88,1.85,7.37,4.29,7.37,8.46,0,4.93-3.83,8.41-10.5,8.41a16.05,16.05,0,0,1-7.89-1.91Z" transform="translate(-234 -423.9)"/><path class="cls-2" d="M281.94,507.12c-.73-1.26-1.46-2.53-2.19-3.78A39.91,39.91,0,0,0,256,485.2a31.13,31.13,0,0,1-14.67-9.34c-9.87-11.19-9.8-30.38.15-41.5a31.29,31.29,0,0,1,54,27.32,45.67,45.67,0,0,0,4.73,32.37l.54.94a43.35,43.35,0,0,0,25,20.17,31.27,31.27,0,0,1,3.53,58.68c-12.49,5.47-29.9.67-37.83-10.41a31.15,31.15,0,0,1-5.13-25.14,43.12,43.12,0,0,0-4.33-31.17m102.41-79a31.29,31.29,0,1,0,11.45,42.75A31.29,31.29,0,0,0,384.35,428.09Z" transform="translate(-234 -423.9)"/></svg>